<svg width="33" height="37" viewBox="0 0 33 37" fill="none" xmlns="http://www.w3.org/2000/svg">
<g id="&#240;&#159;&#166;&#134; icon &#34;calendar 1&#34;">
<g id="Group">
<path id="Vector" d="M9.73078 7.61538C9.03693 7.61538 8.46155 7.04 8.46155 6.34615V1.26923C8.46155 0.575385 9.03693 0 9.73078 0C10.4246 0 11 0.575385 11 1.26923V6.34615C11 7.04 10.4246 7.61538 9.73078 7.61538Z" fill="#1A1818"/>
<path id="Vector_2" d="M23.2692 7.61538C22.5754 7.61538 22 7.04 22 6.34615V1.26923C22 0.575385 22.5754 0 23.2692 0C23.9631 0 24.5385 0.575385 24.5385 1.26923V6.34615C24.5385 7.04 23.9631 7.61538 23.2692 7.61538Z" fill="#1A1818"/>
<path id="Vector_3" d="M10.5769 22.4233C10.3569 22.4233 10.1369 22.3725 9.93384 22.2879C9.71384 22.2033 9.54461 22.0848 9.37538 21.9325C9.07077 21.6109 8.88461 21.1879 8.88461 20.7309C8.88461 20.5109 8.93538 20.2909 9.02 20.0879C9.10461 19.8848 9.22307 19.6986 9.37538 19.5294C9.54461 19.3771 9.71384 19.2586 9.93384 19.174C10.5431 18.9202 11.3046 19.0556 11.7785 19.5294C12.0831 19.8509 12.2692 20.2909 12.2692 20.7309C12.2692 20.8325 12.2523 20.9509 12.2354 21.0694C12.2185 21.1709 12.1846 21.2725 12.1338 21.374C12.1 21.4756 12.0492 21.5771 11.9815 21.6786C11.9308 21.7633 11.8462 21.8479 11.7785 21.9325C11.4569 22.2371 11.0169 22.4233 10.5769 22.4233Z" fill="#1A1818"/>
<path id="Vector_4" d="M16.5 22.4229C16.28 22.4229 16.06 22.3721 15.8569 22.2875C15.6369 22.2029 15.4677 22.0844 15.2985 21.9321C14.9939 21.6106 14.8077 21.1875 14.8077 20.7306C14.8077 20.5106 14.8585 20.2906 14.9431 20.0875C15.0277 19.8844 15.1462 19.6983 15.2985 19.5291C15.4677 19.3767 15.6369 19.2583 15.8569 19.1737C16.4662 18.9029 17.2277 19.0552 17.7016 19.5291C18.0062 19.8506 18.1923 20.2906 18.1923 20.7306C18.1923 20.8321 18.1754 20.9506 18.1585 21.0691C18.1416 21.1706 18.1077 21.2721 18.0569 21.3737C18.0231 21.4752 17.9723 21.5768 17.9046 21.6783C17.8539 21.7629 17.7692 21.8475 17.7016 21.9321C17.38 22.2368 16.94 22.4229 16.5 22.4229Z" fill="#1A1818"/>
<path id="Vector_5" d="M22.4231 22.4229C22.2031 22.4229 21.9831 22.3721 21.78 22.2875C21.56 22.2029 21.3908 22.0844 21.2215 21.9321C21.1539 21.8475 21.0862 21.7629 21.0185 21.6783C20.9508 21.5768 20.9 21.4752 20.8662 21.3737C20.8154 21.2721 20.7815 21.1706 20.7646 21.0691C20.7477 20.9506 20.7308 20.8321 20.7308 20.7306C20.7308 20.2906 20.9169 19.8506 21.2215 19.5291C21.3908 19.3767 21.56 19.2583 21.78 19.1737C22.4062 18.9029 23.1508 19.0552 23.6246 19.5291C23.9292 19.8506 24.1154 20.2906 24.1154 20.7306C24.1154 20.8321 24.0985 20.9506 24.0815 21.0691C24.0646 21.1706 24.0308 21.2721 23.98 21.3737C23.9462 21.4752 23.8954 21.5768 23.8277 21.6783C23.7769 21.7629 23.6923 21.8475 23.6246 21.9321C23.3031 22.2368 22.8631 22.4229 22.4231 22.4229Z" fill="#1A1818"/>
<path id="Vector_6" d="M10.5769 28.346C10.3569 28.346 10.1369 28.2954 9.93384 28.2108C9.73077 28.1261 9.54461 28.0075 9.37538 27.8552C9.07077 27.5337 8.88461 27.0937 8.88461 26.6537C8.88461 26.4337 8.93538 26.2137 9.02 26.0106C9.10461 25.7906 9.22307 25.6046 9.37538 25.4523C10.0015 24.8261 11.1523 24.8261 11.7785 25.4523C12.0831 25.7738 12.2692 26.2137 12.2692 26.6537C12.2692 27.0937 12.0831 27.5337 11.7785 27.8552C11.4569 28.1598 11.0169 28.346 10.5769 28.346Z" fill="#1A1818"/>
<path id="Vector_7" d="M16.5 28.346C16.06 28.346 15.62 28.1598 15.2985 27.8552C14.9939 27.5337 14.8077 27.0937 14.8077 26.6537C14.8077 26.4337 14.8585 26.2137 14.9431 26.0106C15.0277 25.7906 15.1462 25.6046 15.2985 25.4523C15.9246 24.8261 17.0754 24.8261 17.7016 25.4523C17.8539 25.6046 17.9723 25.7906 18.0569 26.0106C18.1416 26.2137 18.1923 26.4337 18.1923 26.6537C18.1923 27.0937 18.0062 27.5337 17.7016 27.8552C17.38 28.1598 16.94 28.346 16.5 28.346Z" fill="#1A1818"/>
<path id="Vector_8" d="M22.4231 28.346C21.9831 28.346 21.5431 28.1598 21.2215 27.8552C21.0692 27.7029 20.9508 27.5168 20.8662 27.2968C20.7815 27.0937 20.7308 26.8737 20.7308 26.6537C20.7308 26.4337 20.7815 26.2137 20.8662 26.0106C20.9508 25.7906 21.0692 25.6044 21.2215 25.4521C21.6108 25.0629 22.2031 24.8768 22.7446 24.9952C22.8631 25.0121 22.9646 25.046 23.0662 25.0968C23.1677 25.1306 23.2692 25.1814 23.3708 25.2491C23.4554 25.2998 23.54 25.3844 23.6246 25.4521C23.9292 25.7737 24.1154 26.2137 24.1154 26.6537C24.1154 27.0937 23.9292 27.5337 23.6246 27.8552C23.3031 28.1598 22.8631 28.346 22.4231 28.346Z" fill="#1A1818"/>
<path id="Vector_9" d="M30.8846 14.5367H2.11539C1.42155 14.5367 0.846161 13.9613 0.846161 13.2674C0.846161 12.5736 1.42155 11.9982 2.11539 11.9982H30.8846C31.5785 11.9982 32.1539 12.5736 32.1539 13.2674C32.1539 13.9613 31.5785 14.5367 30.8846 14.5367Z" fill="#1A1818"/>
<path id="Vector_10" d="M23.2692 36.3846H9.73077C3.55385 36.3846 0 32.8308 0 26.6538V12.2692C0 6.09231 3.55385 2.53846 9.73077 2.53846H23.2692C29.4462 2.53846 33 6.09231 33 12.2692V26.6538C33 32.8308 29.4462 36.3846 23.2692 36.3846ZM9.73077 5.07692C4.89077 5.07692 2.53846 7.42923 2.53846 12.2692V26.6538C2.53846 31.4938 4.89077 33.8461 9.73077 33.8461H23.2692C28.1092 33.8461 30.4615 31.4938 30.4615 26.6538V12.2692C30.4615 7.42923 28.1092 5.07692 23.2692 5.07692H9.73077Z" fill="#1A1818"/>
</g>
</g>
</svg>
